<svg xmlns="http://www.w3.org/2000/svg" viewBox="0 0 662.53 166.52"><defs><style>.cls-1{fill:#543895;stroke:#fff;stroke-width:9px;}.cls-2{fill:#fff;}</style></defs><g id="Layer_2" data-name="Layer 2"><g id="Layer_1-2" data-name="Layer 1"><circle class="cls-1" cx="83.26" cy="83.26" r="78.76" transform="translate(-16.96 145.08) rotate(-76.67)"/><circle class="cls-1" cx="83.26" cy="83.26" r="78.76" transform="translate(-16.96 145.08) rotate(-76.67)"/><path class="cls-2" d="M140.48,29.15l-30.4,116.06H84L67.53,85.59l-16.2,59.62H34.6L22.07,132.86,5.44,71.08,10.23,53.7h15l14,63,17.09-63H79.89l16.15,63L120.61,13.9"/><path class="cls-2" d="M258.4,51.08l-15,55.65h-15.8L217.57,70.48l-9.67,36.25H192L177,51.08h15l8.53,38.31,10.22-38.31h14.3l9.84,38.31,9-38.31Z"/><path class="cls-2" d="M288.9,106.73H263.4V99h7.12V70.85H263.4V63.1h25.5v7.75h-7.13V99h7.13Z"/><path class="cls-2" d="M337.78,106.73H326.94L308.4,76.79v29.94H298.09V63.1h13.45l15.93,25v-25h10.31Z"/><path class="cls-2" d="M380.45,106.73H348.89V63.1h31.56v8.44H360.14V79H379v8.44H360.14V98.29h20.31Z"/><path class="cls-2" d="M428.5,104.27a58.57,58.57,0,0,1-7.77,2.27,42.58,42.58,0,0,1-9.65,1.13q-11.15,0-17.46-6.06t-6.3-16.74q0-10.17,6.36-16.41t17.74-6.23a42.71,42.71,0,0,1,8.22.77,37.19,37.19,0,0,1,8.68,3.09v10.2h-1.27c-.54-.41-1.35-1-2.4-1.74a29.31,29.31,0,0,0-3-1.91,19.87,19.87,0,0,0-4-1.61,16.88,16.88,0,0,0-4.83-.68,15.76,15.76,0,0,0-5.42.89,12,12,0,0,0-7.3,7.18A17.18,17.18,0,0,0,399,84.7q0,7.26,3.85,11.11c2.57,2.57,6.35,3.86,11.37,3.86l1.42,0c.52,0,1,0,1.43-.09V91h-8.69V82.73H428.5Z"/><path class="cls-2" d="M478.85,106.73H467.13l-3-8.81h-16l-3,8.81H433.67L449.78,63.1h13ZM461.38,89.92,456.1,74.5l-5.3,15.42Z"/><path class="cls-2" d="M527.12,106.73h-13.7l-11.87-16h-5.18v16H485.12V63.1H504a43.74,43.74,0,0,1,6.65.44,14.44,14.44,0,0,1,5.21,1.91,11.36,11.36,0,0,1,3.91,3.79,10.93,10.93,0,0,1,1.45,5.85A13,13,0,0,1,519,83,16.83,16.83,0,0,1,512.57,88ZM509.5,76.41a5.6,5.6,0,0,0-.67-2.8,4.47,4.47,0,0,0-2.29-1.84,8.16,8.16,0,0,0-2.63-.56c-1-.07-2.18-.11-3.51-.11h-4V82.79h3.42a32.34,32.34,0,0,0,4.46-.26,6.4,6.4,0,0,0,3-1.2,5.79,5.79,0,0,0,1.69-2A6.69,6.69,0,0,0,509.5,76.41Z"/><path class="cls-2" d="M573.31,85a21.37,21.37,0,0,1-2.79,10.91,20.25,20.25,0,0,1-7,7.4,21.6,21.6,0,0,1-7,2.7,46.48,46.48,0,0,1-9,.76H532.06V63.1h15.83a41.09,41.09,0,0,1,9.2.9,21.37,21.37,0,0,1,6.51,2.53A19.82,19.82,0,0,1,570.71,74,22.28,22.28,0,0,1,573.31,85Zm-11.69-.14a15.89,15.89,0,0,0-1.57-7.35,10.88,10.88,0,0,0-4.95-4.78,13,13,0,0,0-3.53-1.15,34.4,34.4,0,0,0-5.43-.31h-2.83V98.48h2.83a33,33,0,0,0,5.88-.37,12.53,12.53,0,0,0,3.66-1.33,10.83,10.83,0,0,0,4.51-4.69A16.58,16.58,0,0,0,561.62,84.82Z"/><path class="cls-2" d="M613.42,106.73H581.86V63.1h31.56v8.44H593.11V79H612v8.44H593.11V98.29h20.31Z"/><path class="cls-2" d="M662.53,106.73H651.69L633.16,76.79v29.94H622.85V63.1H636.3l15.92,25v-25h10.31Z"/></g></g></svg>